<mxfile host="app.diagrams.net" modified="2024-05-22T06:24:01.602Z" agent="Mozilla/5.0 (Windows NT 10.0; Win64; x64) AppleWebKit/537.36 (KHTML, like Gecko) Chrome/125.0.0.0 Safari/537.36" etag="47Bw-UF40ngWsU9ERRhU" version="24.4.4" type="device">
  <diagram name="sort_data" id="rOyLPIY-yCBFSIpTAET7">
    <mxGraphModel dx="1207" dy="651" grid="1" gridSize="10" guides="1" tooltips="1" connect="1" arrows="1" fold="1" page="1" pageScale="1" pageWidth="827" pageHeight="1169" math="0" shadow="0">
      <root>
        <mxCell id="zYxBmpHz6tMXkz-W-Mkn-0" />
        <mxCell id="zYxBmpHz6tMXkz-W-Mkn-1" parent="zYxBmpHz6tMXkz-W-Mkn-0" />
        <mxCell id="zYxBmpHz6tMXkz-W-Mkn-2" value="Urutkan Data" style="text;strokeColor=none;align=center;fillColor=none;html=1;verticalAlign=middle;whiteSpace=wrap;rounded=0;fontStyle=1;fontSize=18;" parent="zYxBmpHz6tMXkz-W-Mkn-1" vertex="1">
          <mxGeometry y="10" width="140" height="30" as="geometry" />
        </mxCell>
        <mxCell id="zYxBmpHz6tMXkz-W-Mkn-3" style="edgeStyle=orthogonalEdgeStyle;rounded=0;orthogonalLoop=1;jettySize=auto;html=1;exitX=0.5;exitY=1;exitDx=0;exitDy=0;entryX=0.5;entryY=0;entryDx=0;entryDy=0;" parent="zYxBmpHz6tMXkz-W-Mkn-1" source="zYxBmpHz6tMXkz-W-Mkn-4" target="zYxBmpHz6tMXkz-W-Mkn-13" edge="1">
          <mxGeometry relative="1" as="geometry" />
        </mxCell>
        <mxCell id="zYxBmpHz6tMXkz-W-Mkn-4" value="&lt;font style=&quot;font-size: 12px;&quot;&gt;F&lt;/font&gt;" style="verticalLabelPosition=middle;verticalAlign=middle;html=1;shape=offPageConnector;rounded=0;size=0.6666666666666666;whiteSpace=wrap;textShadow=0;labelBorderColor=none;labelBackgroundColor=none;fontColor=default;labelPosition=center;align=center;" parent="zYxBmpHz6tMXkz-W-Mkn-1" vertex="1">
          <mxGeometry x="384" y="60" width="60" height="60" as="geometry" />
        </mxCell>
        <mxCell id="zYxBmpHz6tMXkz-W-Mkn-5" style="edgeStyle=orthogonalEdgeStyle;rounded=0;orthogonalLoop=1;jettySize=auto;html=1;exitX=0.5;exitY=1;exitDx=0;exitDy=0;entryX=0.5;entryY=0;entryDx=0;entryDy=0;" parent="zYxBmpHz6tMXkz-W-Mkn-1" source="zYxBmpHz6tMXkz-W-Mkn-6" target="zYxBmpHz6tMXkz-W-Mkn-8" edge="1">
          <mxGeometry relative="1" as="geometry" />
        </mxCell>
        <mxCell id="zYxBmpHz6tMXkz-W-Mkn-6" value="Proses mengurutkan data" style="rounded=1;whiteSpace=wrap;html=1;" parent="zYxBmpHz6tMXkz-W-Mkn-1" vertex="1">
          <mxGeometry x="341" y="570" width="146" height="80" as="geometry" />
        </mxCell>
        <mxCell id="zYxBmpHz6tMXkz-W-Mkn-7" style="edgeStyle=orthogonalEdgeStyle;rounded=0;orthogonalLoop=1;jettySize=auto;html=1;exitX=0.5;exitY=1;exitDx=0;exitDy=0;entryX=0.5;entryY=0;entryDx=0;entryDy=0;" parent="zYxBmpHz6tMXkz-W-Mkn-1" source="zYxBmpHz6tMXkz-W-Mkn-8" target="zYxBmpHz6tMXkz-W-Mkn-9" edge="1">
          <mxGeometry relative="1" as="geometry" />
        </mxCell>
        <mxCell id="zYxBmpHz6tMXkz-W-Mkn-8" value="Data berhasil di urutkan" style="shape=parallelogram;html=1;strokeWidth=2;perimeter=parallelogramPerimeter;whiteSpace=wrap;rounded=1;arcSize=12;size=0.23;" parent="zYxBmpHz6tMXkz-W-Mkn-1" vertex="1">
          <mxGeometry x="319" y="750" width="190" height="60" as="geometry" />
        </mxCell>
        <mxCell id="zYxBmpHz6tMXkz-W-Mkn-9" value="Apakah lanjut?" style="rhombus;whiteSpace=wrap;html=1;" parent="zYxBmpHz6tMXkz-W-Mkn-1" vertex="1">
          <mxGeometry x="355" y="910" width="117.37" height="120" as="geometry" />
        </mxCell>
        <mxCell id="zYxBmpHz6tMXkz-W-Mkn-10" value="Selesai" style="strokeWidth=2;html=1;shape=mxgraph.flowchart.terminator;whiteSpace=wrap;" parent="zYxBmpHz6tMXkz-W-Mkn-1" vertex="1">
          <mxGeometry x="364" y="1100" width="100" height="60" as="geometry" />
        </mxCell>
        <mxCell id="zYxBmpHz6tMXkz-W-Mkn-11" style="edgeStyle=orthogonalEdgeStyle;rounded=0;orthogonalLoop=1;jettySize=auto;html=1;exitX=0.5;exitY=1;exitDx=0;exitDy=0;entryX=0.5;entryY=0;entryDx=0;entryDy=0;entryPerimeter=0;" parent="zYxBmpHz6tMXkz-W-Mkn-1" source="zYxBmpHz6tMXkz-W-Mkn-9" target="zYxBmpHz6tMXkz-W-Mkn-10" edge="1">
          <mxGeometry relative="1" as="geometry" />
        </mxCell>
        <mxCell id="poR3gqcURSLADsod3XQn-1" style="edgeStyle=orthogonalEdgeStyle;rounded=0;orthogonalLoop=1;jettySize=auto;html=1;exitX=0.5;exitY=1;exitDx=0;exitDy=0;entryX=0.5;entryY=0;entryDx=0;entryDy=0;" parent="zYxBmpHz6tMXkz-W-Mkn-1" source="zYxBmpHz6tMXkz-W-Mkn-13" target="poR3gqcURSLADsod3XQn-0" edge="1">
          <mxGeometry relative="1" as="geometry" />
        </mxCell>
        <mxCell id="zYxBmpHz6tMXkz-W-Mkn-13" value="masukkan nama kolom&lt;div&gt;yang di urutkan&lt;/div&gt;" style="shape=parallelogram;html=1;strokeWidth=2;perimeter=parallelogramPerimeter;whiteSpace=wrap;rounded=1;arcSize=12;size=0.17250000000000001;" parent="zYxBmpHz6tMXkz-W-Mkn-1" vertex="1">
          <mxGeometry x="314" y="240" width="200" height="60" as="geometry" />
        </mxCell>
        <mxCell id="zYxBmpHz6tMXkz-W-Mkn-14" style="edgeStyle=orthogonalEdgeStyle;rounded=0;orthogonalLoop=1;jettySize=auto;html=1;exitX=0;exitY=0.5;exitDx=0;exitDy=0;entryX=0;entryY=0.5;entryDx=0;entryDy=0;" parent="zYxBmpHz6tMXkz-W-Mkn-1" source="zYxBmpHz6tMXkz-W-Mkn-9" target="zYxBmpHz6tMXkz-W-Mkn-13" edge="1">
          <mxGeometry relative="1" as="geometry">
            <mxPoint x="350" y="880" as="sourcePoint" />
            <mxPoint x="330" y="224" as="targetPoint" />
            <Array as="points">
              <mxPoint x="160" y="970" />
              <mxPoint x="160" y="270" />
            </Array>
          </mxGeometry>
        </mxCell>
        <mxCell id="zYxBmpHz6tMXkz-W-Mkn-15" value="Ya" style="text;html=1;align=center;verticalAlign=middle;resizable=0;points=[];autosize=1;strokeColor=none;fillColor=none;" parent="zYxBmpHz6tMXkz-W-Mkn-1" vertex="1">
          <mxGeometry x="110" y="490" width="40" height="30" as="geometry" />
        </mxCell>
        <mxCell id="zYxBmpHz6tMXkz-W-Mkn-16" value="Tidak" style="text;html=1;align=center;verticalAlign=middle;resizable=0;points=[];autosize=1;strokeColor=none;fillColor=none;" parent="zYxBmpHz6tMXkz-W-Mkn-1" vertex="1">
          <mxGeometry x="414" y="1050" width="50" height="30" as="geometry" />
        </mxCell>
        <mxCell id="poR3gqcURSLADsod3XQn-2" style="edgeStyle=orthogonalEdgeStyle;rounded=0;orthogonalLoop=1;jettySize=auto;html=1;exitX=0.5;exitY=1;exitDx=0;exitDy=0;entryX=0.5;entryY=0;entryDx=0;entryDy=0;" parent="zYxBmpHz6tMXkz-W-Mkn-1" source="poR3gqcURSLADsod3XQn-0" target="zYxBmpHz6tMXkz-W-Mkn-6" edge="1">
          <mxGeometry relative="1" as="geometry" />
        </mxCell>
        <mxCell id="poR3gqcURSLADsod3XQn-0" value="pilih urutan pengurutan&amp;nbsp;&lt;div&gt;(ascending, descending)&lt;/div&gt;" style="shape=parallelogram;html=1;strokeWidth=2;perimeter=parallelogramPerimeter;whiteSpace=wrap;rounded=1;arcSize=12;size=0.17250000000000001;" parent="zYxBmpHz6tMXkz-W-Mkn-1" vertex="1">
          <mxGeometry x="314" y="400" width="200" height="60" as="geometry" />
        </mxCell>
      </root>
    </mxGraphModel>
  </diagram>
</mxfile>
